<svg width="100%" height="100%" viewBox="0 0 374 178" version="1.1" xmlns="http://www.w3.org/2000/svg" xml:space="preserve" style="fill-rule:evenodd;clip-rule:evenodd;stroke-linejoin:round;stroke-miterlimit:1.41421;"><path d="M248.139,178.029l0,-2.243c-24.016,0 -21.463,-21.258 -21.463,-35.232l-2.613,-0.139c-6.169,14.865 -26.576,35.371 -44.377,35.371l0,2.243l68.453,0Zm9.54,-132.696l18.237,-45.446l7.29,0l56.669,142.237c9.257,23 19.075,31.98 33.946,33.669l0,2.236l-93.979,0l0,-2.236c12.621,-0.845 20.196,-4.777 20.196,-15.433c0,-5.892 -2.805,-13.466 -6.73,-22.729l-35.629,-92.298Zm-46.191,78.066l42.714,0l0,-2.243c-18.447,0 -21.205,-12.549 -21.502,-24.702l0.013,-7.509c0.013,-1.036 0.027,-2.052 0.027,-3.028l-0.02,0l0.138,-86.023l-38.234,14.238l0,1.63c10.22,0 16.864,-0.073 16.864,18.447l0,13.671c-2.204,-0.844 -6.611,-1.867 -11.19,-1.867c-2.712,0 -5.259,0.343 -7.634,0.851l0,1.188c5.595,0 9.838,1.86 13.565,5.931c4.071,4.579 5.259,12.213 5.259,19.167l0,50.196m-85.627,-123.452l0,2.243c24.016,0 21.463,21.252 21.463,35.233l2.613,0.138c6.169,-14.871 26.576,-35.371 44.377,-35.371l0,-2.243l-68.453,0Zm-9.534,132.689l-18.236,45.446l-7.297,0l-56.669,-142.229c-9.257,-23.007 -19.075,-31.987 -33.946,-33.669l0,-2.244l93.979,0l0,2.244c-12.621,0.844 -20.196,4.77 -20.196,15.432c0,5.892 2.805,13.466 6.737,22.723l35.628,92.297Zm87.732,-25.415c-2.818,7.298 -11.283,15.426 -22.888,15.426c-17.59,0 -29.532,-15.096 -29.532,-34.17c0,-20.572 16.257,-34.672 31.353,-39.317l0,1.327c-4.975,3.985 -9.791,15.26 -9.791,29.861c0,20.401 9.956,28.529 20.407,28.529c4.645,0 8.458,-1.154 10.451,-2.322l0,0.666Z" style="fill:#14b78f;fill-rule:nonzero;"></path></svg>