<?xml version="1.0" encoding="utf-8"?>
<!-- Generator: Adobe Illustrator 23.0.1, SVG Export Plug-In . SVG Version: 6.00 Build 0)  -->
<svg version="1.1" id="Layer_1" xmlns="http://www.w3.org/2000/svg" xmlns:xlink="http://www.w3.org/1999/xlink" x="0px" y="0px"
	 viewBox="0 0 880 999" style="enable-background:new 0 0 880 999;" xml:space="preserve">
<style type="text/css">
	.st0{fill:none;}
  .st1{fill: #78A2D1}
  .st2{fill: #4E81B9}
</style>
<g>
	<polygon class="st0" points="331,694 331,676 331,658 313,658 295,658 295,676 295,694 313,694 	"/>
	<polygon class="st0" points="440,295 440,313 440,331 458.5,331 477,331 477,313 477,295 458.5,295 	"/>
	<polygon class="st0" points="477,694 477,676 477,658 458.6,658 440.1,658 440,676 440,694 458.5,694 	"/>
	<path class="st0" d="M476.5,476.5l-17-0.3c-12.4-0.2-17.4,0.1-18.3,1c-1.3,1.3-1.8,31.1-0.6,34.2c0.5,1.4,3.1,1.6,18.5,1.6H477
		l-0.2-18.3L476.5,476.5z"/>
	<polygon class="st0" points="331,331 331,313 331,295 313,295 295,295 295,313 295,331 313,331 	"/>
	<polygon class="st0" points="186,694 186,676 186,658 168,658 150,658 150,676 150,694 168,694 	"/>
	<polygon class="st0" points="150,295 150,313 150,331 168,331 186,331 186,313 186,295 168,295 	"/>
	<polygon class="st0" points="150,476 150,494.5 150,513 168,513 186,513 186,494.5 186,476 168,476 	"/>
	<path class="st0" d="M331,513l-0.2-18.3l-0.3-18.2l-16.5-0.2c-9.1-0.1-17.1,0.1-17.7,0.4c-1,0.3-1.3,5-1.3,18.4V513h18H331z"/>
	<path class="st1" d="M585.5,53.4l-2.7-4.1c-3.2-4.8-9.7-8.3-15.4-8.2c-2.1,0-36.7,9.5-76.9,21c-40.1,11.5-155.1,44.3-255.5,73
		c-128.2,36.6-183.6,52.8-186.3,54.5c-6.7,4.4-9.4,13.5-6.2,21.2c3.1,7.3,8.6,11.2,16,11.2c3.1,0,83.5-22.5,244.7-68.6
		c132.1-37.7,241.4-68.8,243-69.1l2.8-0.6v396.2V876h-90.5h-90.4l-0.3-48.3l-0.3-48.3l-2.8-4.3c-5.3-8-5.5-8.1-51-8.1
		c-33.6,0-40.3,0.2-43.4,1.5c-4.8,2-7.1,4.1-9.4,8.7c-1.8,3.5-1.9,6.6-1.9,51.3V876h-91H77V574.5c0-328.4,0.4-305-5.6-310.7
		c-8-7.4-19.8-6.3-26.8,2.5l-3.1,3.9l-0.3,312.6c-0.2,214.7,0,313.8,0.8,316.3c1.4,5.1,4.7,8.8,9.4,11c3.9,1.8,9.2,1.9,116.6,1.9
		c107,0,112.7-0.1,116.5-1.9c4.8-2.2,6.9-4.4,9-9.4c1.3-3.1,1.5-10.6,1.5-50.7v-47l18.3,0.2l18.2,0.3L332,852
		c0.5,50.8,0.5,50.3,5.2,54.7c5.9,5.5,0.3,5.3,122.1,5.3h112.4l4.4-2.3c3.3-1.8,5.1-3.7,7.1-7.6l2.8-5.3l-0.2-421.7L585.5,53.4z"/>
	<path class="st1" d="M222.8,309.8l-0.3-37.3l-2.7-4.7c-1.9-3.2-4.1-5.2-7.1-6.7c-4.2-2-5.8-2.1-44.8-2.1c-39.1,0-40.5,0.1-44.7,2.1
		c-2.8,1.4-5.1,3.6-6.8,6.4l-2.5,4.3l0.3,42.4l0.3,42.5l2.7,3.5c5.5,7.2,5.9,7.3,47.6,7.6c43.2,0.4,46.4,0,52.2-5.8
		S223.2,353,222.8,309.8z M186,313v18h-18h-18v-18v-18h18h18V313z"/>
	<path class="st1" d="M267.8,364.8l4.7,2.7h40c22,0,41.2-0.3,42.7-0.7c4-1.2,8.9-5.7,10.9-10.3c1.7-3.7,1.9-7.3,1.9-43.3
		c0-33.1-0.2-39.8-1.5-42.9c-2-4.8-4.1-7.1-8.7-9.4c-3.5-1.8-6.5-1.9-44.5-1.9c-36.9,0-41.1,0.2-44.2,1.8c-1.9,0.9-4.8,3.4-6.5,5.5
		l-3.1,3.9l-0.3,41.5c-0.3,40.6-0.2,41.6,1.9,45.9C262.6,360.7,264.6,362.9,267.8,364.8z M295,313v-18h18h18v18v18h-18h-18V313z"/>
	<path class="st1" d="M511.1,269.5c-2.1-4.6-5.4-7.9-9.4-9.4c-1.8-0.7-17.1-1.1-43.5-1.1c-35,0-41.1,0.2-43.7,1.6c-4.5,2.3-6.6,4.5-8.6,8.9
		c-1.7,3.7-1.9,7.3-1.9,43.5s0.2,39.8,1.9,43.5c2,4.6,6.9,9.1,10.9,10.3c1.5,0.4,20.7,0.7,42.7,0.7h40l4.7-2.7
		c3.2-1.9,5.2-4.1,6.7-7.1c2-4.2,2.1-5.7,2.1-44.3C513,276.7,512.8,273.2,511.1,269.5z M477,313v18h-18.5H440v-18v-18h18.5H477V313z
		"/>
	<path class="st1" d="M211.5,441.9c-3.7-1.7-7.3-1.9-43.5-1.8c-33.1,0-40.1,0.2-43,1.5c-1.9,0.8-4.5,2.5-5.8,3.7c-5.2,4.8-5.2,4.6-5.2,49.4
		c0,46.9-0.3,44.9,7.6,50.9l3.7,2.9l40.1,0.3c22.1,0.2,41.6,0,43.4-0.3c3.8-0.7,9.6-5.5,12-9.9c1.5-2.8,1.7-7.3,1.7-43.1
		c0-22-0.3-41.2-0.7-42.7C220.6,448.8,216.1,443.9,211.5,441.9z M186,494.5V513h-18h-18v-18.5V476h18h18V494.5z"/>
	<path class="st1" d="M260.9,538.5c2.2,4.8,4.4,6.9,9.4,9c3.1,1.3,9.9,1.5,43.4,1.5c38.4,0,39.8-0.1,44.1-2.1c2.6-1.3,5.4-3.8,7-6.2l2.7-4.1
		l0.3-39.5c0.3-42.3,0.1-44.6-4.5-50.2c-5.7-6.8-6.4-6.9-50.3-6.8c-22.3,0-40.5,0.4-41.9,1c-4.6,1.8-8.4,5.3-10.2,9.3
		c-1.7,3.8-1.9,7.2-1.9,44.1C259,531.2,259.2,534.8,260.9,538.5z M295,495.1c0-13.4,0.3-18.1,1.3-18.4c0.6-0.3,8.6-0.5,17.7-0.4
		l16.5,0.2l0.3,18.2L331,513h-18h-18V495.1z"/>
	<path class="st1" d="M504.9,443.3l-4.3-2.8l-40.5-0.3l-40.6-0.3l-5,2.6c-3,1.5-6,4-7.5,6.2l-2.5,3.8v42.1v42l2.7,4.1c1.6,2.4,4.4,4.9,7,6.2
		c4.3,2,5.7,2.1,44.4,2.1c36.6,0,40.2-0.2,43.9-1.9c4.8-2.2,6.9-4.4,9-9.4c1.3-3.1,1.5-9.8,1.5-43.4
		C513,448.8,512.9,448.6,504.9,443.3z M459.1,513c-15.4,0-18-0.2-18.5-1.6c-1.2-3.1-0.7-32.9,0.6-34.2c0.9-0.9,5.9-1.2,18.3-1
		l17,0.3l0.3,18.2L477,513H459.1z"/>
	<path class="st1" d="M114.2,677.3l0.3,42.4l2.7,3.5c5.5,7.2,5.9,7.3,47.6,7.6c43.2,0.4,46.4,0,52.2-5.8s6.2-9,5.8-52.2l-0.3-37.3L220,631
		c-1.5-2.7-4.1-5.3-6.5-6.7c-4-2.3-4.2-2.3-45.5-2.3h-41.5l-4,2.4c-2.2,1.4-5.1,4.2-6.3,6.5l-2.3,4L114.2,677.3z M150,676v-18h18h18
		v18v18h-18h-18V676z"/>
	<path class="st1" d="M261.1,720.7c1.5,3,3.5,5.2,6.7,7.1l4.7,2.7h40c22,0,41.2-0.3,42.7-0.7c4-1.2,8.9-5.7,10.9-10.3c1.7-3.7,1.9-7.3,1.9-43.5
		c0-44.5-0.1-44.9-7.6-50.6l-3.7-2.9l-42.1-0.2c-33.7-0.2-42.7,0-45.1,1.1c-3.7,1.7-8,6.2-9.4,9.9c-0.7,1.8-1.1,17-1.1,42.9
		C259,714.9,259.1,716.5,261.1,720.7z M295,676v-18h18h18v18v18h-18h-18V676z"/>
	<path class="st1" d="M405.9,719.5c2,4.6,6.9,9.1,10.9,10.3c1.5,0.4,20.7,0.7,42.7,0.7c39.9,0,40,0,44-2.3c2.2-1.3,5.2-3.9,6.5-5.9l2.5-3.7
		l0.3-40c0.2-26.8,0-41.3-0.8-43.8c-1.4-4.8-5.5-9.7-9.7-11.4c-4.7-2-83.4-2-87.8,0c-3.9,1.7-7,5.2-9,9.8c-1.3,3.2-1.5,9.8-1.5,43
		C404,712.2,404.2,715.8,405.9,719.5z M440,676l0.1-18h18.5H477v18v18h-18.5H440V676z"/>
	<path class="st2" d="M833.7,227.3c-4.8-4.2-187.6-77.3-193.3-77.3c-2.1,0-5.7,0.9-7.9,1.9c-4.8,2.2-6.9,4.4-9,9.4c-3,7.3-0.6,16.3,5.5,20.7
		c1.8,1.3,41.8,17.7,88.9,36.6l85.6,34.2v311.3v311.4L719,876c-77.6,0.5-84.8,0.6-87.7,2.2c-12.4,6.9-11.8,25.5,1.2,31.8
		c4.1,2,5.2,2,99.7,1.8l95.4-0.3l4.1-2.7c2.4-1.6,4.9-4.4,6.2-7l2.1-4.4V567.3C840,203.4,840.6,233.3,833.7,227.3z"/>
	<path class="st2" d="M767,313.1v-41.4l-2.5-4.3c-1.6-2.8-3.9-4.9-6.8-6.3c-4.2-2-5.7-2.1-45.3-2.1h-40.9l-4.2,2.5c-2.3,1.4-5.2,4.2-6.5,6.3
		c-2.3,3.7-2.3,3.9-2.6,42.9c-0.3,41.8-0.1,44.9,4.4,50.3c5.6,6.6,4.6,6.5,49.9,6.5c46.9,0,46.3,0.1,51.6-8.4l2.9-4.5V313.1z
		 M731,313v18h-18h-18v-18v-18h18h18V313z"/>
	<path class="st2" d="M763.6,447.6c-5.7-7.5-6.1-7.6-50.6-7.5c-33.1,0-40.1,0.2-43,1.5c-4.2,1.8-7.6,4.9-9.8,8.9c-1.5,2.6-1.7,7.9-2,41.7
		c-0.2,25.8,0.1,40,0.8,42.8c1.3,4.9,6.3,10.8,10.7,12.6c2.5,1.1,11.8,1.4,43,1.4c36.5,0,40.1-0.2,43.8-1.9c5-2.2,9.2-7.1,10-11.4
		c0.3-1.8,0.5-21.5,0.3-43.8l-0.3-40.6L763.6,447.6z M713,513h-18v-17.8c0-9.8,0.3-18.2,0.7-18.6c0.4-0.3,8.4-0.5,17.7-0.4l17.1,0.3
		l0.3,18.2L731,513H713z"/>
	<path class="st2" d="M662.6,724c5.6,6.5,5,6.5,46.8,6.8c24.2,0.2,39.6-0.1,42.8-0.8c5.9-1.2,9.4-3.7,12.5-8.8c2.3-3.7,2.3-4,2.3-45.1v-41.4
		l-2.5-4.3c-1.6-2.8-3.9-4.9-6.8-6.3c-4.2-2-5.7-2.1-45.3-2.1c-38.8,0.1-41.1,0.2-44.7,2.1c-2,1.1-4.9,3.8-6.5,6.1l-2.7,4.2
		l-0.3,39.2C657.9,715.6,658.1,718.6,662.6,724z M695,676v-18h18h18v18v18h-18h-18V676z"/>
</g>
</svg>
