<?xml version="1.0" encoding="utf-8"?>
<!-- Generator: Adobe Illustrator 23.0.1, SVG Export Plug-In . SVG Version: 6.00 Build 0)  -->
<svg version="1.1" id="Layer_1" xmlns="http://www.w3.org/2000/svg" xmlns:xlink="http://www.w3.org/1999/xlink" x="0px" y="0px"
	 viewBox="0 0 200 200" style="enable-background:new 0 0 200 200;" xml:space="preserve">
<style type="text/css">
	.st0{fill:#78A2D1;}
	.st1{fill:#4E81B9;}
</style>
<g>
	<path class="st0" d="M197.2,56.8c0.2-1,0.4-2.1,0.6-3.2c0.8-4.8,1.8-14.4,1.8-16.8v-0.5l-2.3,0.1c-7.1,0.4-17.2,1.9-24.8,3.7
		c-22.7,5.2-38.5,14.2-46.4,26.4c-5.8,8.8-7.3,19.2-4.7,31.4l0.5,2.5l-2.1,2.3c-4.2,4.6-7.8,9.5-10.2,13.9c-0.3,0.6-0.7,1.1-0.7,1.1
		s-0.5-1.3-1-3c-3.1-10.5-7.7-21.2-12.4-28.7L94.3,84l0.9-3.8c1.7-6.7,2.2-10.9,2.2-16.9c0-8.5-1.4-14.9-5-22
		c-3.7-7.5-10-14.5-18.1-20.1C60.7,11.7,40.8,4.9,17.1,1.6C12.8,1.1,6.5,0.4,3.2,0.3C0.5,0.1,0.4,0.1,0.4,0.5c0,1.4,0.7,9,1.2,13.1
		c2.6,21.1,8.1,40,15.6,54C28.3,88.2,44,99,63.2,99h2.3l-0.1-2.9c-0.4-9.4-3.1-21.6-7.2-33.1c-1.9-5.3-4.6-12-6.1-15
		c-0.3-0.7-0.6-1.3-0.6-1.4c0-0.2,2.1,2.7,5.1,6.9c13.4,19,22.4,35.5,30.6,55.6c4.9,12.1,8.5,27.5,10.4,45.1
		c1,9.5,1.5,16.2,1.7,27.8c0.3,11.6,0.2,10.9,1.1,12.7c0.9,1.8,2.5,3.4,4.3,4.2c1.3,0.6,1.5,0.7,3.7,0.7c2.3,0,2.4,0,3.8-0.7
		c2.6-1.3,4.4-3.6,5-6.4c0.6-2.7-0.1-22.7-1.2-34.3c-0.2-2.5-0.4-4.8-0.4-5.3c0-1.1,1.8-8.4,3.2-12.4c2-6.1,4.5-11.6,7.3-16.4
		c0.7-1.2,2.1-3.6,3.1-5.4c5.5-10.1,12.3-20.1,18.9-27.9c4.2-5,9.8-10.6,14.4-14.3C171.8,66.8,183.8,59.8,197.2,56.8z"/>
	<path class="st1" d="M163.6,76.6c-7.9,9.9-13.8,21-16,30.2c-0.5,2.1-1.2,6.2-1.2,7.2c0,0.3,0.4,0.3,4,0.2c4.5-0.1,7.4-0.6,11.2-1.9
		c17.6-5.9,30-25.2,35.6-55.5c-13.4,3-25.5,10-35,19.7c0.9-0.7,1.8-1.4,2.6-2C165.9,73.8,165.8,73.8,163.6,76.6z"/>
</g>
</svg>
