<?xml version="1.0" encoding="utf-8"?>
<!-- Svg Vector Icons : http://www.onlinewebfonts.com/icon -->
<!DOCTYPE svg PUBLIC "-//W3C//DTD SVG 1.1//EN" "http://www.w3.org/Graphics/SVG/1.1/DTD/svg11.dtd">
<svg version="1.1" xmlns="http://www.w3.org/2000/svg" x="0px" y="0px" viewBox="0 0 1000 1000"
     enable-background="new 0 0 1000 1000" xml:space="preserve">
<metadata> Svg Vector Icons : http://www.onlinewebfonts.com/icon </metadata>
  <g><g transform="translate(0.000000,511.000000) scale(0.100000,-0.100000)"><path d="M6742.3,4994.1c-227.5-27.1-457-93.9-669.8-194c-254.6-121-402.7-221.2-590.5-398.6c-415.2-394.4-638.5-859.7-701.1-1473.1l-12.5-118.9l-192,194.1c-392.3,392.3-828.4,600.9-1383.4,659.4c-185.7,20.9-221.2,18.8-285.9-12.5c-123.1-58.4-148.1-141.9-121-394.4c29.2-285.9,87.6-500.8,198.2-734.5c317.2-669.8,918.1-1133,1635.9-1260.3l150.2-27.1V672.7V113.5H3695.9c-1195.6,0-1174.8,2.1-1233.2-135.6c-43.8-106.4-41.7-1195.6,2.1-1291.6c39.6-85.6,98.1-118.9,227.4-135.6l106.4-12.5l158.6-1585.8C3065.7-4139,3124.1-4648.1,3145-4681.5c68.9-110.6,23-108.5,1855-108.5c1832,0,1786.1-2.1,1855,108.5c20.9,33.4,79.3,542.5,187.8,1633.8l158.6,1585.8l106.4,12.5c129.4,16.7,187.8,50.1,227.5,135.6c43.8,96,45.9,1185.2,2.1,1291.6c-58.4,137.7-37.6,135.6-1233.2,135.6H5229.5v1226.9v1229l152.3,27.1c463.2,81.4,905.6,321.3,1231.1,665.6c348.5,369.3,546.7,807.5,600.9,1329.2c20.9,185.7,18.8,221.2-12.5,285.9C7140.8,5006.6,7049.1,5031.6,6742.3,4994.1z M6742.3,4439c-41.7-277.5-233.7-644.8-465.3-888.9c-229.5-240-636.4-461.1-928.5-505c-96-14.6-98.1-14.6-98.1,41.7c0,81.4,116.9,419.4,192,552.9c162.8,290,413.1,542.5,705.3,705.3c135.6,77.2,465.3,192,550.9,192C6756.9,4537.1,6756.9,4537.1,6742.3,4439z M3564.4,3132.8c379.8-131.5,694.8-377.7,913.9-709.4c127.3-189.9,235.8-452.8,260.8-628.1l16.7-102.2l-102.2,16.7c-175.3,25-438.2,133.5-628.1,260.8c-219.1,144-398.5,329.7-538.3,552.9c-102.2,164.8-240,517.5-240,621.8c0,48,8.3,56.3,58.4,56.3C3337,3201.7,3451.7,3170.4,3564.4,3132.8z M7107.5-658.5v-333.8H5000H2892.5v333.8v333.9H5000h2107.5V-658.5z M6750.7-1497.3c0-27.1-62.6-671.9-139.8-1435.6l-139.8-1387.6H5000H3528.9l-139.8,1387.6c-77.2,763.7-139.8,1408.5-139.8,1435.6l-2.1,45.9H5000h1752.8L6750.7-1497.3z"/></g></g>
</svg>
