<?xml version="1.0" encoding="utf-8"?>
<!-- Generator: Adobe Illustrator 23.0.1, SVG Export Plug-In . SVG Version: 6.00 Build 0)  -->
<svg version="1.1" id="Layer_1" xmlns="http://www.w3.org/2000/svg" xmlns:xlink="http://www.w3.org/1999/xlink" x="0px" y="0px"
	 viewBox="0 0 200 200" style="enable-background:new 0 0 200 200;" xml:space="preserve">
<style type="text/css">
	.st0{fill:#78A2D1;}
	.st1{fill:#4E81B9;}
</style>
<g transform="translate(0.000000,512.000000) scale(0.100000,-0.100000)">
	<path class="st0" d="M854.3,5109.8c-27-6.3-63.3-23.8-89.1-43c-37.5-27.3-67.2-69.9-86.3-122.7l-9-25.4l-1.2-502.3l-1.2-502.7
		l-28.1-23c-184-151.2-211.3-420.3-60.9-607.4c62.1-77.3,150.8-131.3,249.6-151.6c57.4-12.1,144.5-9.4,198.8,5.5
		c260.2,72.3,392.6,358.2,279.7,602.7c-26.6,57.4-75,118.4-123.4,155.9l-23,17.6v493.4c0,478.1-0.4,494.1-7.8,523.4
		c-22.3,87.9-91.8,158.2-177.7,180.1C946.1,5117.7,884.8,5117.3,854.3,5109.8z M981.6,5011.4c32.4-16,64.8-50.4,77.7-81.6l9-22.7
		l1.2-282l1.2-282.4H914.1H757.8v269.5c0,184.4,1.6,275.8,4.3,289.8c11.7,55.5,53.1,101.6,106.3,118.8c10.2,3.5,29.7,5.1,52,4.3
		C951.2,5024.3,959.4,5022.3,981.6,5011.4z"/>
	<path class="st1" d="M1234,4972c-8.2-8.6-11.3-15.2-11.3-25.8s3.1-17.2,11.3-25.8l11.3-11.3h123.8c77.3,0,126.6,1.6,131.3,3.9
		c20.7,11.3,23.8,47.3,4.7,62.5c-9.8,7.4-15.2,7.8-134.8,7.8h-125L1234,4972z"/>
	<path class="st1" d="M1246.1,4514.1c-23.8-9.4-31.3-41-14.1-60.9l9.4-10.9l122.3-1.2c87.5-0.8,125.4,0.4,133.2,3.5
		c24.2,9.8,28.5,43.8,8.6,62.5l-10.2,9.4l-119.5,0.8C1302.7,4517.7,1252,4516.5,1246.1,4514.1z"/>
	<path class="st1" d="M1241.4,4277.8c-5.9-3.1-12.5-9-14.8-13.3c-5.9-10.5-4.7-32,2-41.4c11.3-16.4,21.5-17.6,148-16.4l120.3,1.2
		l11.3,12.9c15.6,17.6,15.2,32.8-2,50l-13.3,13.3h-120.3C1273.8,4283.7,1250,4282.9,1241.4,4277.8z"/>
	<path class="st1" d="M1234,4038.4c-22.3-22.3-10.2-59,21.5-64.8c6.6-1.2,63.3-2,126.2-1.2c113.7,1.2,113.7,1.2,123.8,10.5
		c12.1,11.7,16.4,28.5,10.2,43.8c-9.4,22.3-14.8,23-148.4,23h-121.9L1234,4038.4z"/>
</g>
<g transform="translate(0.000000,512.000000) scale(0.100000,-0.100000)">
	<path class="st1" d="M1253.1,4749.7c-14.8-2-30.5-21.5-30.5-38.7c0-9.8,3.1-16.8,11.3-25l11.3-11.3h121.9
		c134,0,139.1,0.8,148.4,23.4c6.3,15.6,1.6,33.6-12.1,43.8c-9,6.6-18.8,7.4-124.6,8.2C1315.6,4750.5,1259,4750.5,1253.1,4749.7z"/>
</g>
</svg>
