<?xml version="1.0" encoding="utf-8"?>
<!-- Generator: Adobe Illustrator 23.0.1, SVG Export Plug-In . SVG Version: 6.00 Build 0)  -->
<svg version="1.1" id="Layer_1" xmlns="http://www.w3.org/2000/svg" xmlns:xlink="http://www.w3.org/1999/xlink" x="0px" y="0px"
	 viewBox="0 0 840 782" style="enable-background:new 0 0 840 782;" xml:space="preserve">
<style type="text/css">
	.st0{fill:#4E81B9;}
	.st1{fill:#78A2D1;}
</style>
<g transform="translate(0.000000,1037.000000) scale(0.100000,-0.100000)">
	<path class="st0" d="M2623.6,6026.4c-172-26-311-55-494-105c-658-177-721-192-1266-304c-375-77-396-83-470-150
		c-86-78-139-208-125-308c3-28,38-181,76-341c39-159,95-393,125-520c30-126,76-315,101-420c25-104,57-212,70-239
		c65-128,236-220,373-200c25,4,145,46,267,95c375,149,519,187,676,176c66-4,132-21,347-90c1019-327,1526-459,2007-522
		c114-14,125-14,234,4c436,75,979,264,1614,564c366,172,673,347,1435,815c302,186,338,217,380,329c31,81,25,203-12,285
		c-34,73-107,146-183,183c-53,26-71,29-155,30h-95l-537-223c-296-122-544-222-551-222c-21,0-27,11-17,30c5,9,135,76,289,150
		c305,145,362,183,413,276c102,188,25,426-168,516c-59,28-71,30-152,26c-82-4-107-12-437-132c-192-70-429-156-525-191
		c-208-76-311-115-322-121c-5-3,14-34,42-69c93-117,140-250,140-395c0-107-21-194-68-290c-28-59-57-96-132-170
		c-167-168-375-265-661-310c-134-21-602-24-799-5c-456,43-708,142-1177,462c-147,101-163,119-163,186c0,44,4,53,39,88
		c34,34,44,39,85,39c39,0,74-14,209-84c89-46,221-116,292-156c208-117,314-160,495-198c275-59,806-67,1059-16
		c234,48,409,161,484,314c28,57,32,74,32,145c0,72-4,87-35,143c-41,77-101,131-194,177c-105,52-190,66-451,75c-158,6-287,16-410,34
		c-324,48-400,77-565,217c-312,264-507,372-749,414C2918.6,6032.4,2690.6,6037.4,2623.6,6026.4z"/>
</g>
<g transform="translate(0.000000,403.000000) scale(0.100000,-0.100000)">
	<path class="st1" d="M6520.5,1285.4c354.3,283.6,679.7,595.8,896.4,859.2c133.4,162.9,205.9,292.6,182.2,326
		c-4,5.7-41.8,7.2-84.2,3c-387.5-42.6-792.3,27.6-1208.2,208.7c-124.7,55.1-370.8,184.9-810,426.6
		c-512.5,283.1-890.4,375.9-1269.7,314.7c-248-40.7-437.2-123-686-297.7c-272.2-190.1-458.5-376.9-707.7-708.7
		c-96.6-128.3-115-147.4-133.6-147.1c-34.5,3.8-334.1,101.8-473.2,156.5c-150,58-367.5,157.8-503,229.8
		c-81.4,44.1-102.4,51.3-137.2,45.1c-129.5-23-238.7-258.2-167.1-359.5c19.1-26.9,326-190.8,469.4-249.8
		c615.5-255.5,1342-370.1,2193.9-347c590.3,15.7,1224.7,100.6,1846.6,246.4l204.8,48.1l-145.8-97
		c-508.7-338.9-1228.9-602-1875.6-687c-506.5-66.6-979.4-42.2-1505.1,76c-38,8.7-66.7,12.9-65.2,9
		c196.5-326.4,368.6-528.1,592.4-695.7c128.6-95.2,319.6-199,458.2-247.9c135.3-47.6,393.9-96.3,548.6-102
		c565.2-21.6,1130.8,164,1841.7,606.7C6090.9,968.1,6400,1189.2,6520.5,1285.4z"/>
</g>
</svg>
