<?xml version="1.0" encoding="utf-8"?>
<!-- Generator: Adobe Illustrator 23.0.1, SVG Export Plug-In . SVG Version: 6.00 Build 0)  -->
<svg version="1.1" id="Layer_1" xmlns="http://www.w3.org/2000/svg" xmlns:xlink="http://www.w3.org/1999/xlink" x="0px" y="0px"
	 viewBox="0 0 512 512" style="enable-background:new 0 0 512 512;" xml:space="preserve">
<style type="text/css">
	.st0{fill:#78A2D1;}
	.st1{fill:#4E81B9;}
</style>
<path class="st0" d="M218,9.5c-12.8,2.5-27.2,10-35.3,18.3l-3.9,3.9l-7-3.6c-6.5-3.3-7.7-3.6-15.7-3.6c-7.4,0-9.5,0.4-14.8,2.9
	c-3.9,1.8-8.1,4.8-11.1,8l-4.9,5.1l-10.9,0.1c-8.9,0.1-12.4,0.6-18.9,2.7c-10.8,3.6-19.4,8.9-27.4,16.8C60.2,68,54.9,76.7,51.3,87.5
	c-2.3,6.9-2.7,9.7-2.7,20.5c0,11.1,0.3,13.4,2.8,20.5c4.1,11.8,8,18,17.2,27.3l8.2,8.3l-3.3,4.9c-14.3,21.3-11.8,50.9,5.9,69.3
	c6.3,6.5,15.6,12.3,24.1,15c5.4,1.7,9.3,2.2,17.6,2.1h10.6l2.9,5.6c6.7,12.7,21.8,23.5,36.8,26.1c6.9,1.2,17.5,0.7,22-1.1
	c2.2-0.8,2.7-0.4,6.2,5.6c7.2,12.3,18.7,21.6,31.9,25.7c9.7,3,23.3,3,33,0c16.5-5.2,31.5-19.8,36.2-35.2c0.9-3.1,1.9-5.9,2.3-6.3
	c0.3-0.4,3,0.1,5.9,1.3c24.5,9.3,52.7-6.4,58.1-32.4l1-5.2l12.3-0.1c10.6,0,13.2-0.4,20.2-2.8c11.7-4,18-8,27.1-17
	c9-9.1,13-15.3,17-27.1c2.5-7.1,2.8-9.4,2.8-20.5c-0.1-10.7-0.4-13.6-2.6-20.3c-8.2-24.8-28.9-42.6-54.3-46.7
	c-3.2-0.5-5.9-1.1-6.1-1.2c-0.1-0.2-1-3.7-1.8-7.8c-4.8-23.2-23.3-41.7-46.6-46.6c-9.2-2-20.8-1.4-30,1.5c-8,2.6-7.7,2.6-8.4-0.2
	c-0.8-3.5-8.1-14.2-13.4-19.9C267.5,12.9,241.9,4.7,218,9.5z M246.5,25.5c13.4,2.8,30.4,13.5,37.6,23.7c2,2.7,1.5,2.5-4.2-1.7
	c-7.6-5.7-16-9.7-26.6-12.7c-11.2-3.2-31.5-3.2-42.6,0c-10.6,3-19,7-26.6,12.7c-5.6,4.1-6.1,4.4-4.3,1.7c7.3-10.2,24-20.8,37.2-23.6
	C225.6,23.7,237.8,23.7,246.5,25.5z M128.4,57.5c8.7,2.3,16.4,6.4,22.8,12.4c6.3,5.7,7.9,8.8,2.5,4.7c-7.8-6-22.5-10.6-33.7-10.6
	c-14.8,0-30.4,6.4-40.5,16.5c-6.8,6.7-12.9,17.6-14.4,25.5l-0.9,4.5l-0.1-4.5c-0.1-5.9,2.2-15,5.7-22c3.5-7.2,15-18.7,22.2-22.2
	C103.5,56.1,117,54.5,128.4,57.5z M337.3,66c12,3.7,22.8,13.8,27.8,26c2.3,5.7,3.2,19.9,1.7,26.6l-0.7,3.2l3.7-0.9
	c9.8-2.3,23.1-0.4,34,4.8c7.5,3.6,18.8,14.9,22.4,22.5c9.7,20,6.8,42.7-7.6,58.4l-4.5,4.9l3.9-8c7.6-15.4,7.7-31.1,0.4-46.3
	c-9.4-19.6-31.5-31.6-52.6-28.5c-4,0.5-7.4,0.9-7.6,0.8c-0.1-0.1,0.3-3.4,1-7.3c3-17.9-6.9-37-23.5-45.2c-12.7-6.2-26-6.4-38.4-0.4
	c-3.2,1.5-6.2,3-6.8,3.2c-2.1,1,3.2-4.1,8-7.6C309.1,64.3,324.2,61.9,337.3,66z M233.8,89.5c9.9,2.4,19.4,7.7,27.5,15.6l7.2,7
	l-7.9-5.1c-11.9-7.6-21.3-10.3-36.1-10.4c-13.8-0.1-22.3,2-33.5,8.1c-8.8,4.9-19.7,16-24.1,24.5l-3.4,6.8H157
	c-28.5,0.1-53.6,20-59.4,47c-1.4,6.4-1.4,6.5-1.5,2c-0.1-6.4,2.4-15.9,6-23.4c9.9-20.4,30.9-33.5,53.6-33.6h7.2l3.1-6.3
	c7.7-15.8,23-28.1,39.8-32.2C213.4,87.7,226,87.7,233.8,89.5z M312.4,137.5c9.4,2.5,16.6,6.6,23.7,13.5c9.7,9.5,16,23.4,15.8,35v4.5
	l-1.4-5.2c-4.8-17.6-18.7-31.7-37.8-38c-7.2-2.3-9.8-2.7-20.7-2.7c-10.1,0-13.8,0.5-19,2.2c-3.5,1.2-6.6,1.9-6.8,1.7
	c-0.6-0.5,10-7.3,13.5-8.6C290.3,135.9,302.6,135,312.4,137.5z"/>
<path class="st1" d="M155.4,298.3c-3.1,2.7-3.7,7.4-1.3,10.3c1.9,2.4,23.9,12.7,32.4,15.2c3.9,1.2,9,2.4,11.5,2.7
	c2.5,0.4,5.5,0.8,6.8,1.1c2.2,0.5,2.2,0.3-0.9-3.6c-5.5-6.8-20.7-17.4-36.6-25.4C160.9,295.4,158.9,295.3,155.4,298.3z"/>
<path class="st1" d="M330.5,302.1c-13.7,7.6-21.5,13.1-28.5,20.4c-4.7,4.8-5.1,5.6-3,5.1c1.4-0.2,4.5-0.7,7-1.1
	c8-1.1,18.2-4.6,31.2-10.7c10-4.8,12.9-6.6,13.8-8.8c2.2-5.4-1.4-11-7-11C342.6,296,336.5,298.7,330.5,302.1z"/>
<path class="st1" d="M122.5,330.5c-5.3,5.2-1.7,9.7,9.1,11.4c13.4,2,26.8,2.4,35.4,1.1l8.3-1.3l-6.4-3.2c-7.4-3.8-17.6-6.7-30.4-8.9
	C126.6,327.5,125.3,327.6,122.5,330.5z"/>
<path class="st1" d="M214,338.6c-6.3,6.3-17.6,16-28.2,24l-17.6,13.3l-11.9,19.8l-11.8,19.8l-15.7,8c-9.9,5-17.3,9.5-20,12.1
	c-2.4,2.3-9.8,7.8-16.5,12.3L80,456l-11.9,15.9c-6.6,8.7-13.8,19.5-16,24L48,504h31.5h31.4l3.9-5.8c9-13.2,12.1-16.2,19.5-19.7
	c4-1.8,11.6-4.9,17-7c10.4-3.9,15.7-7.5,15.7-10.6c0-1-2.5-5.4-5.5-9.9c-7.4-10.8-8.5-13.2-8.5-18c0-8.4,7.2-12.1,32-16.5
	c19.9-3.5,23-5.1,23-11.8c0-2-1.1-3.2-5.3-5.5c-6.3-3.5-10.7-8.4-10.7-11.7c0-3,5.3-7.6,13.3-11.6c10-5.1,17.4-10.9,19.6-15.6
	c1.9-3.9,5.3-15.2,6.6-21.6c0.5-2.7,0.6-2.7,8.4-2.7h8l-0.8,2.8c-1.1,3.8-3.1,7.4-9,16.2c-6.7,9.9-6.7,11.7,0.4,19.1
	c4.4,4.6,5.5,6.4,5.5,9c0,5.3-3.8,11.6-10.6,17.6c-4.5,3.9-7.4,7.6-9.4,11.7c-1.7,3.4-5.9,9.6-9.5,13.9c-3.6,4.3-6.5,8.6-6.5,9.7
	c0,1.4,1.8,2.8,6.5,5c10.7,5.1,12.3,12,5.9,26.3c-3.6,7.9-3.7,8.7-4.2,22.4l-0.5,14.3h53.8c48.7,0,53.6-0.1,52.4-1.6
	c-2.4-2.9-6.7-4.4-17.1-5.9c-12.5-1.9-16-2.9-19.7-6.1c-3.8-3.2-5.5-7.5-4.6-12.1c0.5-2.8,2.3-5.2,8.1-10.7c8-7.7,8.5-9,5.9-15.4
	c-3-7-6.7-11.3-13.6-15.3c-10.1-5.8-18-16.3-22.6-29.8c-3.9-11.3-2.5-18.6,5.5-30.4c4.9-7.1,7.3-12.7,7-16c-0.3-2.6-1.1-3.5-5.3-5.6
	c-5.6-2.9-9-7.8-10.1-14.9l-0.7-4.3l8.4,0.3l8.4,0.3l0.6,3.7c0.7,4.7,2.2,6.4,7.5,8.7c6.4,2.9,10.2,12.3,8.3,21.1
	c-2.3,10.9-2.3,12.4,0.6,15.8c1.5,1.7,6.6,5.3,11.3,7.9c5.1,2.8,10.8,6.9,13.9,10c5.6,5.7,14.3,17.4,14.3,19.2
	c0,2.6-1.8,1.5-16.7-11.1c-5.1-4.3-11.9-9.1-15-10.7c-9.1-4.6-14.1-8.7-17.1-14.1c-1.5-2.7-3-5-3.3-5c-0.4,0-1.5,3-2.5,6.6
	c-2.1,7.8-1.3,13.7,3.2,22.8c3.1,6.3,11.3,16,15.3,18.1c1.5,0.7,6.8,2.1,11.7,3c18.7,3.6,24.1,7.2,31.3,21.5c4.5,9,5,9.6,10.2,12.2
	c3.7,1.9,9.4,3.4,18.4,4.8c7.4,1.2,15.2,3.1,18,4.4c8.9,4,14.8,11.9,17.5,23.3l1.2,5.3h23.9H448l-3.6-7.2
	c-2.9-5.9-6.1-9.8-16.2-20.1c-12.1-12.2-13.5-13.3-31.2-23.9c-10.2-6.1-19.5-12-20.6-13.2c-1.2-1.1-7.2-10.6-13.3-20.9l-11.3-18.8
	l-15.9-7.9l-15.9-8l-8-16l-8-16h-4.3c-4.1,0-4.6-0.4-16.2-12l-12-12H248h-23.5L214,338.6z"/>
<path class="st0" d="M218.4,377.9c-7.8,5.5-10.9,8.5-10,9.9c0.3,0.6,2.7,2.2,5.4,3.7c2.6,1.5,5.8,3.8,7.2,5.1l2.6,2.4l5.6-5.8
	c8.1-8.2,8.2-9.4,1.7-15.3c-2.9-2.7-5.3-4.9-5.4-4.9C225.4,373,222.2,375.2,218.4,377.9z"/>
<path class="st0" d="M205.9,420.5c-0.3,0.2-6.6,1.8-14.1,3.4c-18.1,3.9-23.8,6.9-23.8,12c0,1.4,1.2,5.3,2.6,8.6
	c1.4,3.3,3.2,8.2,4,10.9c3.3,11.8-2.6,17.6-26.5,26.3c-14,5-16.4,6.7-22.2,15l-5,7.3h43.5H208v-12.3c0.1-13.9,0.8-18.2,5.1-27.9
	c1.8-4.2,2.9-8.2,2.7-10.1c-0.3-2.8-1-3.6-6.6-6.3c-7.6-3.8-9.1-5.6-9.2-11c0-3.9,4.1-12.1,6.9-13.8c1.3-0.8,1.5-2.6,0.3-2.6
	C206.7,420,206.1,420.2,205.9,420.5z"/>
<path class="st0" d="M300.7,446c1.5,3,2.8,7.4,3.1,10.5c0.5,6.5-1.5,10.4-8.4,16c-2.5,2-5.2,4.8-6.1,6.2c-1.5,2.3-1.5,2.6,0.9,5
	c2.1,2,4.4,2.8,12.4,4c17.6,2.7,23.9,5.5,28.4,12.8l2.2,3.5h29.3h29.3l-1.4-5.2c-1.9-7.2-6-12.9-11.4-15.5c-2.8-1.4-9.7-3-18-4.3
	c-20.9-3.1-26.6-6.8-33.6-21.6c-2-4-4.9-8.5-6.5-9.9c-3.2-2.6-10.1-4.9-18.1-6l-4.8-0.6L300.7,446z"/>
</svg>
